<svg width="770" height="421" viewBox="0 0 770 421" fill="none" xmlns="http://www.w3.org/2000/svg">
<path d="M740.483 99.8078C695.493 21.8889 606.262 -16.8771 518.443 7.63142C414.954 36.5056 360.358 149.958 292.195 223.87L242.389 124.427L205.373 122.133L96.9556 353.79C-5.84153 278.026 6.47862 106.854 120.516 47.0606C207.532 1.44212 297.428 40.5397 353.187 113.347L370.38 92.6514C309.97 13.5444 209.47 -26.1334 114.481 18.9324C-37.6801 91.1317 -37.4033 320.965 110.798 395.209L168.911 272.196L279.155 271.45C282.367 282.364 299.781 299.468 287.738 307.895C257.588 329.005 206.01 331.63 173.064 315.411L160.744 338.4C195.683 357.714 234.969 357.161 272.123 344.838C342.75 321.379 388.126 228.319 437.435 175.489C450.475 161.507 460.331 151.588 480.431 149.322C509.307 146.062 543.665 151.754 573.178 149.322L462.823 303.06L459.666 328.922H618.859C635.415 328.922 669.137 303.474 679.796 290.267C734.613 222.323 716.811 118.376 640.454 75.244C576.86 39.3239 505.431 58.2787 456.898 109.258C469.107 108.373 488.709 109.865 499.728 107.793C505.597 106.688 512.961 98.067 519.911 94.779C625.061 44.9883 725.975 161.369 667.309 261.227C658.367 276.479 631.539 301.264 613.295 301.264H503.936L616.118 143.575L614.651 121.691C549.285 128.986 472.54 100.056 422.235 152.03C385.884 189.58 355.873 240.421 319.826 279.104L304.875 250.727C389.566 160.513 463.487 -8.09051 615.814 33.5491C758.119 72.4809 783.617 267.941 670.992 356.056C584.557 423.696 489.318 394.601 422.291 317.898C416.837 325.855 402.994 334.31 409.666 344.23C414.76 351.801 441.781 374.872 450.447 380.951C638.904 513.165 848.596 287.089 740.455 99.8078H740.483ZM182.837 243.267C194.077 219.062 205.151 194.664 216.475 170.46C218.136 166.951 221.015 156.092 225.722 157.584L265.894 243.267H182.837Z" fill="#2F5E97"/>
<path d="M272.732 110.694C289.261 123.985 302.577 142.359 317.279 157.501L334.776 139.265C334.555 132.744 328.214 129.787 325.169 126.057C277.799 68.3916 211.63 35.5662 137.93 69.9941C50.8588 110.639 27.409 232.988 99.7242 298.529C100.582 291.538 109.968 280.568 110.3 274.545C110.439 272.003 94.8792 248.821 92.0829 241.25C50.582 129.262 178.269 34.7372 272.732 110.694Z" fill="#2F5E97"/>
<path d="M503.963 179.716L469.163 182.258C432.894 225.749 399.201 276.065 361.41 317.87C301.775 383.908 227.577 413.252 140.118 381.614L127.438 406.206C224.587 440.496 310.329 413.859 378.021 339.975C415.951 298.584 458.504 242.77 492.778 197.538C494.8 194.885 506.151 181.595 503.936 179.688L503.963 179.716Z" fill="#2F5E97"/>
</svg>
