<svg width="872" height="201" viewBox="0 0 872 201" fill="none" xmlns="http://www.w3.org/2000/svg">
<path d="M352.931 47.6517C331.488 10.4505 288.959 -8.05771 247.102 3.6435C197.777 17.429 171.755 71.595 139.267 106.883L115.528 59.4057L97.8855 58.3107L46.2113 168.912C-2.78421 132.739 3.08786 51.0156 57.4408 22.4684C98.9148 0.688519 141.761 19.3551 168.337 54.1157L176.532 44.235C147.739 6.46657 99.8385 -12.477 54.5642 9.03899C-17.9592 43.5094 -17.8273 153.24 52.8091 188.686L80.5068 129.956L133.052 129.6C134.583 134.811 142.883 142.976 137.143 147C122.773 157.079 98.189 158.332 82.4862 150.588L76.6141 161.564C93.267 170.785 111.992 170.521 129.7 164.637C163.362 153.438 184.99 109.007 208.492 83.7843C214.707 77.1092 219.404 72.3733 228.984 71.2916C242.748 69.7349 259.123 72.4525 273.19 71.2916L220.592 144.691L219.088 157.039H294.963C302.854 157.039 318.926 144.889 324.006 138.583C350.134 106.145 341.649 56.5166 305.255 35.9241C274.945 18.7746 240.9 27.8243 217.768 52.1633C223.587 51.7412 232.93 52.4535 238.182 51.4642C240.979 50.9365 244.489 46.8206 247.801 45.2508C297.919 21.479 346.017 77.0433 318.055 124.719C313.793 132.001 301.006 143.834 292.31 143.834H240.188L293.656 68.5477L292.957 58.0997C261.802 61.5823 225.224 47.7704 201.247 72.5844C183.921 90.5122 169.617 114.785 152.436 133.254L145.311 119.706C185.676 76.6343 220.909 -3.86269 293.511 16.0175C361.337 34.6049 373.49 127.924 319.81 169.993C278.613 202.287 233.22 188.396 201.274 151.775C198.674 155.575 192.076 159.611 195.256 164.347C197.684 167.962 210.563 178.977 214.694 181.879C304.516 245.003 404.46 137.066 352.918 47.6517H352.931ZM87.1442 116.144C92.5017 104.588 97.78 92.9395 103.177 81.3834C103.969 79.708 105.341 74.5236 107.584 75.236L126.731 116.144H87.1442Z" fill="#2F5E97"/>
<path d="M129.991 52.8493C137.868 59.1946 144.215 67.9672 151.222 75.1964L159.562 66.4897C159.456 63.3764 156.435 61.9649 154.983 60.184C132.405 32.6525 100.868 16.9805 65.7409 33.4176C24.2405 52.8229 13.0638 111.237 47.5309 142.528C47.9399 139.19 52.4133 133.953 52.5716 131.077C52.6376 129.864 45.2216 118.796 43.8889 115.181C24.1086 61.7143 84.967 16.5848 129.991 52.8493Z" fill="#2F5E97"/>
<path d="M240.201 85.8027L223.614 87.0163C206.328 107.78 190.268 131.803 172.256 151.762C143.833 183.291 108.468 197.301 66.7833 182.196L60.7397 193.937C107.043 210.308 147.91 197.591 180.174 162.316C198.252 142.554 218.533 115.907 234.87 94.3115C235.833 93.045 241.243 86.6997 240.188 85.7895L240.201 85.8027Z" fill="#2F5E97"/>
<path d="M504.636 111.431L493.666 86.0056H438.814L428 111.431H407L456.366 1.56944H476.427L525.95 111.431H504.636ZM445.71 69.9972H486.927L466.24 21.9722L445.71 69.9972Z" fill="#2F5E97"/>
<path d="M558.551 94.1667H625.157V111.431H531.595V97.7764L596.164 18.8333H532.692V1.56944H623.119V15.2236L558.551 94.1667Z" fill="#2F5E97"/>
<path d="M693.842 113C659.834 113 634.759 88.9875 634.759 56.5C634.759 24.0125 659.834 0 693.842 0C727.85 0 752.925 23.8556 752.925 56.5C752.925 89.1444 727.85 113 693.842 113ZM693.842 95.1083C715.94 95.1083 732.395 78.9431 732.395 56.5C732.395 34.0569 715.94 17.8917 693.842 17.8917C671.745 17.8917 655.289 34.0569 655.289 56.5C655.289 78.9431 671.745 95.1083 693.842 95.1083Z" fill="#2F5E97"/>
<path d="M851.783 1.56944H872V111.431H855.231L794.738 37.0389V111.431H774.521V1.56944H791.29L851.783 75.9611V1.56944Z" fill="#2F5E97"/>
<path d="M440.65 190.557L436.869 181.836H417.965L414.238 190.557H407L424.014 152.876H430.928L447.996 190.557H440.65ZM420.341 176.346H434.547L427.417 159.874L420.341 176.346Z" fill="#2F5E97"/>
<path d="M475.402 190.557V158.797H462.871V152.876H494.955V158.797H482.423V190.557H475.402Z" fill="#2F5E97"/>
<path d="M509.585 190.934C500.727 190.934 494.246 184.797 494.246 176.184C494.246 167.571 500.727 161.489 509.585 161.489C518.552 161.489 524.979 167.571 524.979 176.184C524.979 184.797 518.552 190.934 509.585 190.934ZM509.585 185.174C514.501 185.174 518.173 181.675 518.173 176.184C518.173 170.694 514.501 167.195 509.585 167.195C504.724 167.195 501.051 170.694 501.051 176.184C501.051 181.675 504.724 185.174 509.585 185.174Z" fill="#2F5E97"/>
<path d="M553.439 184.636H576.394V190.557H544.148V185.874L566.402 158.797H544.526V152.876H575.692V157.559L553.439 184.636Z" fill="#2F5E97"/>
<path d="M615.416 191.095C603.695 191.095 595.053 182.859 595.053 171.716C595.053 160.573 603.695 152.337 615.416 152.337C627.137 152.337 635.779 160.52 635.779 171.716C635.779 182.913 627.137 191.095 615.416 191.095ZM615.416 184.959C623.032 184.959 628.703 179.414 628.703 171.716C628.703 164.019 623.032 158.474 615.416 158.474C607.8 158.474 602.129 164.019 602.129 171.716C602.129 179.414 607.8 184.959 615.416 184.959Z" fill="#2F5E97"/>
<path d="M658.562 161.489C666.988 161.489 673.199 167.302 673.199 176.184C673.199 185.12 666.988 190.934 658.562 190.934C654.889 190.934 651.648 189.696 649.325 187.058V201H642.574V161.812H649.001V165.58C651.27 162.834 654.619 161.489 658.562 161.489ZM657.805 185.174C662.667 185.174 666.34 181.675 666.34 176.184C666.34 170.694 662.667 167.195 657.805 167.195C652.944 167.195 649.217 170.694 649.217 176.184C649.217 181.675 652.944 185.174 657.805 185.174Z" fill="#2F5E97"/>
<path d="M706.717 176.346C706.717 176.884 706.663 177.692 706.609 178.337H683.977C684.788 182.536 688.298 185.228 693.322 185.228C696.562 185.228 699.101 184.205 701.154 182.106L704.772 186.251C702.18 189.319 698.129 190.934 693.16 190.934C683.491 190.934 677.226 184.743 677.226 176.184C677.226 167.625 683.545 161.489 692.133 161.489C700.559 161.489 706.717 167.356 706.717 176.346ZM692.133 166.872C687.758 166.872 684.572 169.671 683.923 173.87H700.289C699.749 169.725 696.562 166.872 692.133 166.872Z" fill="#2F5E97"/>
<path d="M719.63 166.01C721.574 162.996 725.085 161.489 729.892 161.489V167.894C729.298 167.787 728.812 167.733 728.326 167.733C723.195 167.733 719.954 170.747 719.954 176.615V190.557H713.202V161.812H719.63V166.01Z" fill="#2F5E97"/>
<path d="M746.48 161.489C754.798 161.489 759.606 165.418 759.606 173.708V190.557H753.232V187.058C751.612 189.534 748.479 190.934 744.158 190.934C737.568 190.934 733.409 187.327 733.409 182.321C733.409 177.53 736.65 173.762 745.4 173.762H752.854V173.331C752.854 169.402 750.477 167.087 745.67 167.087C742.429 167.087 739.081 168.164 736.92 169.94L734.273 165.041C737.352 162.673 741.835 161.489 746.48 161.489ZM745.562 186.035C748.857 186.035 751.72 184.528 752.854 181.567V178.23H745.886C741.295 178.23 740.053 179.952 740.053 182.052C740.053 184.474 742.105 186.035 745.562 186.035Z" fill="#2F5E97"/>
<path d="M783.718 184.205L785.609 188.996C783.988 190.288 781.558 190.934 779.127 190.934C772.808 190.934 769.189 187.596 769.189 181.244V167.41H764.435V162.027H769.189V155.46H775.94V162.027H783.664V167.41H775.94V181.083C775.94 183.882 777.345 185.389 779.937 185.389C781.342 185.389 782.692 185.012 783.718 184.205Z" fill="#2F5E97"/>
<path d="M794.566 157.075C792.081 157.075 790.245 155.298 790.245 153.037C790.245 150.776 792.081 149 794.566 149C797.05 149 798.887 150.669 798.887 152.876C798.887 155.244 797.104 157.075 794.566 157.075ZM791.163 190.557V161.812H797.914V190.557H791.163Z" fill="#2F5E97"/>
<path d="M819.739 190.934C810.881 190.934 804.399 184.797 804.399 176.184C804.399 167.571 810.881 161.489 819.739 161.489C828.705 161.489 835.133 167.571 835.133 176.184C835.133 184.797 828.705 190.934 819.739 190.934ZM819.739 185.174C824.654 185.174 828.327 181.675 828.327 176.184C828.327 170.694 824.654 167.195 819.739 167.195C814.878 167.195 811.205 170.694 811.205 176.184C811.205 181.675 814.878 185.174 819.739 185.174Z" fill="#2F5E97"/>
<path d="M857.955 161.489C864.869 161.489 870 165.418 870 174.085V190.557H863.248V174.946C863.248 169.832 860.71 167.356 856.389 167.356C851.582 167.356 848.341 170.263 848.341 176.023V190.557H841.589V161.812H848.017V165.526C850.231 162.888 853.742 161.489 857.955 161.489Z" fill="#2F5E97"/>
</svg>
